# xmcd CD database file
#
# Track frame offsets:
#	150
#	25631
#	47389
#	70999
#	92976
#	114543
#	133229
#	152931
#	174933
#	195403
#	218793
#	242181
#	266248
#	286125
#
# Disc length: 4122 seconds
#
# Revision: 12
# Processed by: cddbd v1.5PL3 Copyright (c) Steve Scherf et al.
# Submitted via: CDex 1.51
#
DISCID=c810180e
DTITLE=サザンオールスターズ - BALLAD 3 〜the album of LOVE〜 DISC2
DYEAR=2000
DGENRE=J-pop
TTITLE0=愛の言霊 〜Spiritual Message〜 
TTITLE1=BLUE HEAVEN
TTITLE2=あなただけを 〜Summer Heartbreak〜
TTITLE3=MOON LIGHT LOVER
TTITLE4=愛無き愛児 〜Before The Storm〜 
TTITLE5=心を込めて花束を
TTITLE6=唐人物語（ラシャメンのうた）
TTITLE7=SAUDADE 〜真冬の蜃気楼〜 
TTITLE8=湘南 SEPTEMBER
TTITLE9=TSUNAMI
TTITLE10=夏の日のドラマ
TTITLE11=LOVE AFFAIR 〜秘密のデート〜
TTITLE12=SEA SIDE WOMAN BLUES
TTITLE13=素敵な夢を叶えましょう
EXTD=YEAR: 2000
EXTT0=
EXTT1=
EXTT2=
EXTT3=
EXTT4=
EXTT5=
EXTT6=
EXTT7=
EXTT8=
EXTT9=
EXTT10=
EXTT11=
EXTT12=
EXTT13=
PLAYORDER=
